<svg width="24" height="24" viewBox="0 0 24 24" fill="none" xmlns="http://www.w3.org/2000/svg">
<path d="M11.5 0.288675C11.8094 0.110043 12.1906 0.110042 12.5 0.288675L21.8923 5.71132C22.2017 5.88996 22.3923 6.22008 22.3923 6.57735V17.4226C22.3923 17.7799 22.2017 18.11 21.8923 18.2887L12.5 23.7113C12.1906 23.89 11.8094 23.89 11.5 23.7113L2.1077 18.2887C1.7983 18.11 1.6077 17.7799 1.6077 17.4226V6.57735C1.6077 6.22009 1.79829 5.88996 2.1077 5.71132L11.5 0.288675Z" fill="#1B2240"/>
<mask id="mask0_727_8189" style="mask-type:alpha" maskUnits="userSpaceOnUse" x="1" y="0" width="22" height="24">
<path d="M11.5 0.288675C11.8094 0.110043 12.1906 0.110042 12.5 0.288675L21.8923 5.71132C22.2017 5.88996 22.3923 6.22008 22.3923 6.57735V17.4226C22.3923 17.7799 22.2017 18.11 21.8923 18.2887L12.5 23.7113C12.1906 23.89 11.8094 23.89 11.5 23.7113L2.1077 18.2887C1.7983 18.11 1.6077 17.7799 1.6077 17.4226V6.57735C1.6077 6.22009 1.79829 5.88996 2.1077 5.71132L11.5 0.288675Z" fill="#1B2240"/>
</mask>
<g mask="url(#mask0_727_8189)">
<path d="M12.5 0.5C12.5 0.223858 12.2761 0 12 0C11.7239 0 11.5 0.223858 11.5 0.5H12.5ZM12.0834 9.0071L12.3333 8.57405H12.3333L12.0834 9.0071ZM14.75 10.5462L14.5 10.9792L14.5 10.9792L14.75 10.5462ZM14.75 13.913L14.5 13.4799L14.5 13.4799L14.75 13.913ZM12.0834 15.452L12.3333 15.8851H12.3333L12.0834 15.452ZM11.5 23.6835C11.5 23.9597 11.7239 24.1835 12 24.1835C12.2761 24.1835 12.5 23.9597 12.5 23.6835H11.5ZM11.5 0.5V8.86275H12.5V0.5H11.5ZM11.8334 9.44015L14.5 10.9792L14.9999 10.1131L12.3333 8.57405L11.8334 9.44015ZM14.3333 10.6905V13.7686H15.3333V10.6905H14.3333ZM14.5 13.4799L11.8334 15.019L12.3333 15.8851L14.9999 14.346L14.5 13.4799ZM11.5 15.5964V23.6835H12.5V15.5964H11.5ZM11.8334 15.019C11.6271 15.1381 11.5 15.3582 11.5 15.5964H12.5C12.5 15.7155 12.4364 15.8255 12.3333 15.8851L11.8334 15.019ZM14.3333 13.7686C14.3333 13.6495 14.3969 13.5394 14.5 13.4799L14.9999 14.346C15.2062 14.2269 15.3333 14.0068 15.3333 13.7686H14.3333ZM14.5 10.9792C14.3969 10.9197 14.3333 10.8096 14.3333 10.6905H15.3333C15.3333 10.4523 15.2062 10.2322 14.9999 10.1131L14.5 10.9792ZM11.5 8.86275C11.5 9.10096 11.6271 9.32107 11.8334 9.44015L12.3333 8.57405C12.4364 8.63359 12.5 8.74364 12.5 8.86275H11.5Z" fill="#AD9BF6"/>
</g>
</svg>
