<svg width="48" height="48" viewBox="0 0 48 48" fill="none" xmlns="http://www.w3.org/2000/svg">
<path d="M23 0.577351C23.6188 0.220085 24.3812 0.220085 25 0.57735L43.7846 11.4226C44.4034 11.7799 44.7846 12.4402 44.7846 13.1547V34.8453C44.7846 35.5598 44.4034 36.2201 43.7846 36.5774L25 47.4226C24.3812 47.7799 23.6188 47.7799 23 47.4226L4.21539 36.5774C3.59659 36.2201 3.21539 35.5598 3.21539 34.8453V13.1547C3.21539 12.4402 3.59659 11.7799 4.21539 11.4226L23 0.577351Z" fill="#1B2240"/>
<mask id="mask0_659_6727" style="mask-type:alpha" maskUnits="userSpaceOnUse" x="3" y="0" width="42" height="48">
<path d="M23 0.577351C23.6188 0.220085 24.3812 0.220085 25 0.57735L43.7846 11.4226C44.4034 11.7799 44.7846 12.4402 44.7846 13.1547V34.8453C44.7846 35.5598 44.4034 36.2201 43.7846 36.5774L25 47.4226C24.3812 47.7799 23.6188 47.7799 23 47.4226L4.21539 36.5774C3.59659 36.2201 3.21539 35.5598 3.21539 34.8453V13.1547C3.21539 12.4402 3.59659 11.7799 4.21539 11.4226L23 0.577351Z" fill="#1B2240"/>
</mask>
<g mask="url(#mask0_659_6727)">
<path d="M25 1C25 0.447715 24.5523 0 24 0C23.4477 0 23 0.447715 23 1H25ZM24.1667 18.0142L24.6666 17.1481H24.6666L24.1667 18.0142ZM29.5 21.0923L29.0001 21.9584L29.0001 21.9584L29.5 21.0923ZM29.5 27.8259L29.0001 26.9598L29.0001 26.9598L29.5 27.8259ZM24.1667 30.9041L24.6666 31.7702H24.6666L24.1667 30.9041ZM23 47.3671C23 47.9194 23.4477 48.3671 24 48.3671C24.5523 48.3671 25 47.9194 25 47.3671H23ZM23 1V17.7255H25V1H23ZM23.6668 18.8803L29.0001 21.9584L29.9998 20.2262L24.6666 17.1481L23.6668 18.8803ZM28.6667 21.381V27.5372H30.6667V21.381H28.6667ZM29.0001 26.9598L23.6668 30.038L24.6666 31.7702L29.9998 28.692L29.0001 26.9598ZM23 31.1928V47.3671H25V31.1928H23ZM23.6668 30.038C23.2542 30.2761 23 30.7163 23 31.1928H25C25 31.431 24.8729 31.6511 24.6666 31.7702L23.6668 30.038ZM28.6667 27.5372C28.6667 27.299 28.7938 27.0789 29.0001 26.9598L29.9998 28.692C30.4125 28.4539 30.6667 28.0136 30.6667 27.5372H28.6667ZM29.0001 21.9584C28.7938 21.8394 28.6667 21.6192 28.6667 21.381H30.6667C30.6667 20.9046 30.4125 20.4644 29.9998 20.2262L29.0001 21.9584ZM23 17.7255C23 18.2019 23.2542 18.6421 23.6668 18.8803L24.6666 17.1481C24.8729 17.2672 25 17.4873 25 17.7255H23Z" fill="#AD9BF6"/>
</g>
</svg>
